<?xml version="1.0" encoding="UTF-8"?>
<svg width="26px" height="24px" viewBox="0 0 26 24" version="1.1" xmlns="http://www.w3.org/2000/svg" xmlns:xlink="http://www.w3.org/1999/xlink">
    <title>Icon/Plus</title>
    <defs>
        <path d="M23.984375,10.875 L14.03125,10.875 L14.03125,1.171875 C14.03125,0.55 13.528125,0.046875 12.90625,0.046875 L12.90625,0.046875 C12.284375,0.046875 11.78125,0.55 11.78125,1.171875 L11.78125,10.875 L2.046875,10.875 C1.425,10.875 0.921875,11.378125 0.921875,12 L0.921875,12 C0.921875,12.621875 1.425,13.125 2.046875,13.125 L11.78125,13.125 L11.78125,22.859375 C11.78125,23.48125 12.284375,23.984375 12.90625,23.984375 L12.90625,23.984375 C13.528125,23.984375 14.03125,23.48125 14.03125,22.859375 L14.03125,13.125 L23.984375,13.125 C24.60625,13.125 25.109375,12.621875 25.109375,12 L25.109375,12 C25.109375,11.378125 24.60625,10.875 23.984375,10.875 Z" id="path-1"></path>
    </defs>
    <g id="页面-1" stroke="none" stroke-width="1" fill="none" fill-rule="evenodd">
        <g id="商家店铺商品列表-新建商品-软件下载" transform="translate(-504.000000, -536.000000)">
            <g id="Upload/Image-upload/Avatar" transform="translate(465.000000, 512.000000)">
                <g id="Group">
                    <g id="Icon/Plus" transform="translate(39.000000, 24.000000)">
                        <mask id="mask-2" fill="white">
                            <use xlink:href="#path-1"></use>
                        </mask>
                        <use id="Mask" fill-opacity="0.45" fill="#000000" xlink:href="#path-1"></use>
                    </g>
                </g>
            </g>
        </g>
    </g>
</svg>