<?xml version="1.0" encoding="UTF-8"?>
<svg width="16px" height="16px" viewBox="0 0 16 16" version="1.1" xmlns="http://www.w3.org/2000/svg" xmlns:xlink="http://www.w3.org/1999/xlink">
    <title>购买</title>
    <g id="页面-1" stroke="none" stroke-width="1" fill="none" fill-rule="evenodd">
        <g id="软件市场列表页" transform="translate(-657.000000, -557.000000)" fill-rule="nonzero">
            <g id="编组-5" transform="translate(360.000000, 489.000000)">
                <g id="编组-4" transform="translate(51.000000, 20.000000)">
                    <g id="购买" transform="translate(246.000000, 48.000000)">
                        <rect id="矩形" fill="#000000" opacity="0" x="0" y="0" width="16" height="16"></rect>
                        <path d="M5.44266666,13.3173333 C5.44261835,13.7356045 5.66573559,14.1221236 6.02796096,14.3312731 C6.39018633,14.5404226 6.83648034,14.5404226 7.19870571,14.3312731 C7.56093109,14.1221236 7.78404832,13.7356045 7.78400001,13.3173333 C7.78404832,12.8990622 7.56093109,12.5125431 7.19870571,12.3033935 C6.83648034,12.094244 6.39018633,12.094244 6.02796096,12.3033935 C5.66573559,12.5125431 5.44261835,12.8990622 5.44266666,13.3173333 L5.44266666,13.3173333 Z M10.2693333,13.3173333 C10.2693333,13.7355723 10.4924611,14.122041 10.8546666,14.3311604 C11.2168722,14.5402799 11.6631278,14.5402799 12.0253334,14.3311604 C12.3875389,14.122041 12.6106667,13.7355723 12.6106667,13.3173333 C12.6106667,12.8990944 12.3875389,12.5126257 12.0253334,12.3035062 C11.6631278,12.0943867 11.2168722,12.0943867 10.8546666,12.3035062 C10.4924611,12.5126257 10.2693333,12.8990944 10.2693333,13.3173333 Z M12.56,11.0666667 L5.79466667,11.0666667 C5.08,11.0666667 4.45866667,10.584 4.28533333,9.89333333 L2.67466667,2.88 C2.62133334,2.67466667 2.42666667,2.52266667 2.2,2.52266667 L1.36,2.52266667 C1.06666667,2.52266667 0.826666672,2.28266667 0.826666672,1.98933333 C0.826666672,1.69599998 1.06666667,1.456 1.36,1.456 L2.20266667,1.456 C2.91733334,1.456 3.53866667,1.93866667 3.712,2.632 L5.32,9.64266667 C5.37333333,9.848 5.568,10 5.79466667,10 L12.56,10 C12.7706667,10 12.96,9.86666667 13.0266667,9.664 L14.3813333,4.96 C14.44,4.78666667 14.416,4.624 14.3226667,4.49333333 C14.2293333,4.36266666 14.0826667,4.288 13.9226667,4.288 L6.15466667,4.288 C5.86133334,4.288 5.62133334,4.048 5.62133333,3.75466667 C5.62133331,3.46133334 5.86133333,3.22133334 6.15466667,3.22133333 L13.92,3.22133333 C14.4266667,3.22133333 14.888,3.45866666 15.1866667,3.86933333 C15.4826667,4.28266666 15.56,4.79466666 15.3973333,5.27466667 L14.0426667,9.97866667 C13.824,10.64 13.2293333,11.0666667 12.56,11.0666667 L12.56,11.0666667 Z" id="形状" fill="#999999"></path>
                    </g>
                </g>
            </g>
        </g>
    </g>
</svg>