<?xml version="1.0" encoding="UTF-8"?>
<svg width="16px" height="16px" viewBox="0 0 16 16" version="1.1" xmlns="http://www.w3.org/2000/svg" xmlns:xlink="http://www.w3.org/1999/xlink">
    <title>close-circle</title>
    <g id="页面-1" stroke="none" stroke-width="1" fill="none" fill-rule="evenodd">
        <g id="商家店铺商品列表-新建商品-软件下载" transform="translate(-565.000000, -426.000000)" fill-rule="nonzero">
            <g id="close-circle" transform="translate(565.000000, 426.000000)">
                <rect id="矩形" fill="#000000" opacity="0" x="0" y="0" width="16" height="16"></rect>
                <path d="M10.709375,5.54375 C10.709375,5.475 10.653125,5.41875 10.584375,5.41875 L9.553125,5.4234375 L8,7.275 L6.4484375,5.425 L5.415625,5.4203125 C5.346875,5.4203125 5.290625,5.475 5.290625,5.5453125 C5.290625,5.575 5.3015625,5.603125 5.3203125,5.6265625 L7.353125,8.0484375 L5.3203125,10.46875 C5.3015625,10.4921875 5.290625,10.5203125 5.290625,10.55 C5.290625,10.61875 5.346875,10.675 5.415625,10.675 L6.4484375,10.6703125 L8,8.81875 L9.5515625,10.66875 L10.5828125,10.6734375 C10.6515625,10.6734375 10.7078125,10.61875 10.7078125,10.5484375 C10.7078125,10.51875 10.696875,10.490625 10.678125,10.4671875 L8.6484375,8.046875 L10.68125,5.625 C10.7,5.603125 10.709375,5.5734375 10.709375,5.54375 Z" id="路径" fill="#999999"></path>
                <path d="M8,1.015625 C4.134375,1.015625 1,4.15 1,8.015625 C1,11.88125 4.134375,15.015625 8,15.015625 C11.865625,15.015625 15,11.88125 15,8.015625 C15,4.15 11.865625,1.015625 8,1.015625 Z M8,13.828125 C4.790625,13.828125 2.1875,11.225 2.1875,8.015625 C2.1875,4.80625 4.790625,2.203125 8,2.203125 C11.209375,2.203125 13.8125,4.80625 13.8125,8.015625 C13.8125,11.225 11.209375,13.828125 8,13.828125 Z" id="形状" fill="#999999"></path>
            </g>
        </g>
    </g>
</svg>