<?xml version="1.0" encoding="UTF-8"?>
<svg width="120px" height="120px" viewBox="0 0 120 120" version="1.1" xmlns="http://www.w3.org/2000/svg" xmlns:xlink="http://www.w3.org/1999/xlink">
    <title>空状态</title>
    <g id="页面-1" stroke="none" stroke-width="1" fill="none" fill-rule="evenodd" opacity="0.200000003">
        <g id="软件市场列表页-空状态" transform="translate(-900.000000, -669.000000)" fill="#000000" fill-rule="nonzero">
            <g id="编组" transform="translate(869.000000, 669.000000)">
                <g id="空状态" transform="translate(31.000000, 0.000000)">
                    <rect id="矩形" opacity="0" x="0" y="0" width="120" height="120"></rect>
                    <path d="M21.0834557,102.988328 L20.9664534,102.988328 C20.3112404,102.964984 16.9181731,102.754886 14.648328,100.630565 C12.3316821,98.4595548 12.0508765,95.3314332 12.0157758,94.7361564 L12.0157758,77.5548317 C11.9806751,76.854506 11.9338742,74.4850706 12.7294899,71.8588491 C13.490005,69.3376764 14.4260236,67.6802389 14.7068292,67.2366992 L23.2713991,52.1330076 C23.3182,52.062975 23.365001,51.9812704 23.4118019,51.9112378 C23.6809072,51.5143865 25.1083356,49.4834419 27.0856748,48.2578719 C29.1566159,46.9739414 31.6604656,46.8688925 32.3741797,46.8688925 L86.4409525,46.8688925 C86.5111539,46.8688925 86.5813553,46.8688925 86.6515567,46.8805646 C87.1897674,46.9155809 89.9744226,47.1490228 92.1389656,48.3862649 C94.1982064,49.5651466 95.8596394,51.6194354 96.1755457,52.0279587 C96.2340468,52.1096634 96.3042482,52.1913681 96.3510492,52.2847448 L106.518551,68.3572204 C106.565352,68.427253 106.612153,68.4972856 106.647253,68.5789902 C106.846157,68.9524973 107.852377,70.9250814 108.355487,72.8393051 C108.858597,74.7418567 108.9756,76.8311618 108.999521,77.2396851 L108.999521,94.3859935 C109.0107,95.2847448 108.846897,98.3661781 106.272846,100.665581 C103.839198,102.836591 100.574833,103 99.6271142,103 L21.0834557,102.988328 Z M20.2176385,70.6799674 C20.0304348,71.0067861 19.4454232,72.1156352 18.9540135,73.7263844 C18.4392032,75.4305103 18.4977044,77.0295874 18.5094046,77.2163409 C18.5094046,77.2980456 18.5211049,77.3680782 18.5211049,77.4497828 L18.5211049,94.4560261 L18.5328051,94.5027144 C18.5679058,94.8061889 18.7551095,95.553203 19.082716,95.8800217 L19.1295169,95.9267101 L19.1763179,95.9617264 C19.6326269,96.2885451 20.744149,96.4869707 21.1419569,96.5103149 L99.6388144,96.5103149 C100.294027,96.4986428 101.42895,96.2885451 101.94376,95.8216612 C102.400069,95.4131379 102.505371,94.7011401 102.505371,94.5844191 L102.493671,94.3859935 L102.493671,77.4614549 C102.45857,76.7961455 102.329868,75.4888708 102.060762,74.4850706 C101.756556,73.3412052 101.089643,71.97557 100.960941,71.7187839 L100.92584,71.6604235 L90.9455419,55.8914224 L90.9104412,55.8564061 C90.5360338,55.4011944 89.6234157,54.4324104 88.8980013,54.012215 C88.2661887,53.65038 86.9908634,53.4286102 86.3356504,53.3585776 L32.3741797,53.3585776 C31.8710697,53.3585776 30.9350512,53.4986428 30.5021426,53.767101 C29.8937305,54.140608 29.1683161,55.0160152 28.8758103,55.4128664 L28.8524099,55.4478827 L20.3463411,70.4581976 L20.2527392,70.6099349 C20.2527392,70.6216069 20.2176385,70.6799674 20.2176385,70.6799674 L20.2176385,70.6799674 Z M60.1973318,42.1300217 C58.4071963,42.1300217 56.9446673,40.6826819 56.9446673,38.8851792 L56.9446673,20.2448426 C56.9446673,18.4590119 58.395496,17.0116721 60.1973318,17 C61.9874673,17 63.4499963,18.4473398 63.4499963,20.2448426 L63.4499963,38.8851792 C63.4382961,40.6710098 61.9874673,42.1183496 60.1973318,42.1300217 L60.1973318,42.1300217 Z M81.9714638,42.0016287 C80.1813283,42.0016287 78.7304995,40.5542888 78.7187993,38.7567861 C78.7187993,38.009772 78.9762044,37.2977742 79.4442137,36.7141694 L86.8738611,27.5749186 C87.4939734,26.8162324 88.4182918,26.3726927 89.4011113,26.3726927 C90.1499261,26.3726927 90.8636403,26.6178067 91.4486519,27.0963626 C92.1155651,27.633279 92.5484737,28.4153094 92.6303753,29.2790445 C92.7239772,30.1311075 92.4665721,30.9948426 91.9283614,31.660152 L84.498714,40.7994028 C83.8903019,41.558089 82.9542833,42.0016287 81.9714638,42.0016287 L81.9714638,42.0016287 Z M38.7742067,41.7565147 C37.7913872,41.7565147 36.8553686,41.312975 36.2352563,40.5309446 L28.9343115,31.3916938 C27.8227894,29.9910423 28.0450938,27.9484256 29.4491217,26.8395765 C30.0224331,26.3843648 30.7361472,26.1275787 31.4732619,26.1275787 C32.4677816,26.1275787 33.3920999,26.5711183 34.0122122,27.3531488 L41.3131571,36.4923996 C42.4246792,37.893051 42.2023747,39.9239957 40.7983469,41.0445168 C40.2367357,41.4997286 39.5230216,41.7565147 38.7742067,41.7565147 Z M60.3143341,89.6587948 C53.0718904,89.6587948 46.7888657,84.8148751 45.0221307,77.8933225 L44.8817279,77.3330619 L16.0289554,77.3213898 C14.2388199,77.3213898 12.7879911,75.8623779 12.7762909,74.0765472 C12.7762909,72.2907166 14.2271197,70.8433768 16.0289554,70.8317047 L47.7950857,70.8550489 C49.5852212,70.8550489 51.03605,72.3140608 51.03605,74.0998914 C51.03605,79.1889251 55.1077308,83.1807818 60.3026339,83.1807818 C65.4858367,83.1807818 69.5341171,79.1889251 69.5341171,74.0998914 C69.5341171,72.3140608 70.9849458,70.866721 72.7867816,70.8550489 L104.260406,70.8317047 C106.050542,70.8317047 107.513071,72.2790445 107.513071,74.0648751 C107.513071,75.8507058 106.062242,77.3097177 104.272106,77.3097177 L75.7118396,77.3213898 L75.5714368,77.8816504 C73.816402,84.8148751 67.5450776,89.6587948 60.3143341,89.6587948 L60.3143341,89.6587948 Z" id="形状"></path>
                </g>
            </g>
        </g>
    </g>
</svg>