<?xml version="1.0" encoding="UTF-8"?>
<svg width="16px" height="16px" viewBox="0 0 16 16" version="1.1" xmlns="http://www.w3.org/2000/svg" xmlns:xlink="http://www.w3.org/1999/xlink">
    <title>eye</title>
    <g id="页面-1" stroke="none" stroke-width="1" fill="none" fill-rule="evenodd">
        <g id="软件市场列表页" transform="translate(-742.000000, -557.000000)" fill-rule="nonzero">
            <g id="编组-5" transform="translate(360.000000, 489.000000)">
                <g id="编组-4" transform="translate(51.000000, 20.000000)">
                    <g id="eye" transform="translate(331.000000, 48.000000)">
                        <rect id="矩形" fill="#000000" opacity="0" x="0" y="0" width="16" height="16"></rect>
                        <path d="M14.721875,7.596875 C13.240625,4.4765625 11.0015625,2.90625 8,2.90625 C4.996875,2.90625 2.759375,4.4765625 1.278125,7.5984375 C1.1578125,7.8515625 1.1578125,8.1484375 1.278125,8.403125 C2.759375,11.5234375 4.9984375,13.09375 8,13.09375 C11.003125,13.09375 13.240625,11.5234375 14.721875,8.4015625 C14.8421875,8.1484375 14.8421875,7.8546875 14.721875,7.596875 Z M8,11.96875 C5.4796875,11.96875 3.634375,10.690625 2.3328125,8 C3.634375,5.309375 5.4796875,4.03125 8,4.03125 C10.5203125,4.03125 12.365625,5.309375 13.6671875,8 C12.3671875,10.690625 10.521875,11.96875 8,11.96875 Z M7.9375,5.25 C6.41875,5.25 5.1875,6.48125 5.1875,8 C5.1875,9.51875 6.41875,10.75 7.9375,10.75 C9.45625,10.75 10.6875,9.51875 10.6875,8 C10.6875,6.48125 9.45625,5.25 7.9375,5.25 Z M7.9375,9.75 C6.9703125,9.75 6.1875,8.9671875 6.1875,8 C6.1875,7.0328125 6.9703125,6.25 7.9375,6.25 C8.9046875,6.25 9.6875,7.0328125 9.6875,8 C9.6875,8.9671875 8.9046875,9.75 7.9375,9.75 Z" id="形状" fill="#999999"></path>
                    </g>
                </g>
            </g>
        </g>
    </g>
</svg>