<?xml version="1.0" standalone="no"?><!DOCTYPE svg PUBLIC "-//W3C//DTD SVG 1.1//EN" "http://www.w3.org/Graphics/SVG/1.1/DTD/svg11.dtd"><svg t="1601199977541" class="icon" viewBox="0 0 1024 1024" version="1.1" xmlns="http://www.w3.org/2000/svg" p-id="756" xmlns:xlink="http://www.w3.org/1999/xlink" width="200" height="200"><defs><style type="text/css"></style></defs><path d="M749.248 959.552H274.816A112.448 112.448 0 0 1 166.4 868.352l-68.48-414.912c-4.48-26.048 2.304-52.16 18.56-71.488a87.488 87.488 0 0 1 67.392-30.336h656.192c26.624 0 51.2 11.072 67.456 30.336 16.256 19.328 22.912 45.44 18.368 71.68l-68.416 414.464c-8.96 51.392-56.448 91.456-108.288 91.456z m-565.312-544a23.552 23.552 0 0 0-18.56 7.616 23.808 23.808 0 0 0-4.352 19.648l68.48 414.912c3.456 20.032 24.64 37.888 45.312 37.888h474.432c20.608 0 41.792-17.856 45.312-38.144l68.416-414.4a23.936 23.936 0 0 0-4.288-19.904 23.68 23.68 0 0 0-18.56-7.68H183.936zM318.4 607.36a64 64 0 0 1 0-127.808 64 64 0 0 1 0 127.808z m2.944-63.872h-0.64l0.448 31.936 0.192-32z m382.336 63.872a64 64 0 0 1 0-127.808 64 64 0 0 1 0 127.808z m2.944-63.872h-0.448l0.192 31.936 0.256-32z m29.056-223.04a32 32 0 0 1-32-31.936c0-91.456-102.08-159.744-193.344-159.744-93.44 0-190.08 59.584-190.08 159.36a32 32 0 0 1-63.872 0c0-139.776 129.152-223.296 253.952-223.296 121.728 0 257.28 91.904 257.28 223.68a32 32 0 0 1-32 32z" p-id="757"></path></svg>