<?xml version="1.0" encoding="UTF-8"?>
<svg width="16px" height="16px" viewBox="0 0 16 16" version="1.1" xmlns="http://www.w3.org/2000/svg" xmlns:xlink="http://www.w3.org/1999/xlink">
    <title>left-circle</title>
    <g id="页面-1" stroke="none" stroke-width="1" fill="none" fill-rule="evenodd">
        <g id="买家工作台-订单管理-软件市场订单-02" transform="translate(-295.000000, -112.000000)" fill-rule="nonzero">
            <g id="left-circle" transform="translate(295.000000, 112.000000)">
                <rect id="矩形" fill="#000000" opacity="0" x="0" y="0" width="16" height="16"></rect>
                <path d="M9.4265625,5.1171875 L5.5828125,7.8984375 C5.5140625,7.9484375 5.5140625,8.05 5.5828125,8.1 L9.4265625,10.88125 C9.509375,10.940625 9.625,10.88125 9.625,10.7796875 L9.625,10.046875 C9.625,9.8875 9.5484375,9.7359375 9.41875,9.6421875 L7.146875,8 L9.41875,6.35625 C9.5484375,6.2625 9.625,6.1125 9.625,5.9515625 L9.625,5.21875 C9.625,5.1171875 9.509375,5.0578125 9.4265625,5.1171875 Z" id="路径" fill="#333333"></path>
                <path d="M8,1 C4.134375,1 1,4.134375 1,8 C1,11.865625 4.134375,15 8,15 C11.865625,15 15,11.865625 15,8 C15,4.134375 11.865625,1 8,1 Z M8,13.8125 C4.790625,13.8125 2.1875,11.209375 2.1875,8 C2.1875,4.790625 4.790625,2.1875 8,2.1875 C11.209375,2.1875 13.8125,4.790625 13.8125,8 C13.8125,11.209375 11.209375,13.8125 8,13.8125 Z" id="形状" fill="#333333"></path>
            </g>
        </g>
    </g>
</svg>