<?xml version="1.0" encoding="UTF-8"?>
<svg width="251px" height="30px" viewBox="0 0 251 30" version="1.1" xmlns="http://www.w3.org/2000/svg" xmlns:xlink="http://www.w3.org/1999/xlink">
    <title>编组 7</title>
    <g id="页面-1" stroke="none" stroke-width="1" fill="none" fill-rule="evenodd">
        <g id="商品详情展示页" transform="translate(-360.000000, -18.000000)">
            <g id="编组-6">
                <g id="编组-7" transform="translate(360.000000, 18.000000)">
                    <g id="编组">
                        <path d="M17.3964425,0 L0,30 L16.7127022,30 L34,0.00174184418 L28.1004986,0.00174184418 L25.7349674,4.04347353 L23.3786227,0 L17.3964425,0 Z M20.2971984,4.85321334 L22.7640001,9.18975215 L12.89045,26.1439925 L8.04258741,26.1439925 L20.2971984,4.85321334 Z" id="Fill-1" fill="#888889"></path>
                        <polygon id="Fill-2" fill="#2D73BA" points="33.8748785 0 28 0.0215362527 45.113085 30 51 29.9976071"></polygon>
                        <polygon id="Fill-3" fill="#2D73BA" points="22.8764144 0 17 0.0215362527 34.1126258 30 40 29.9976071"></polygon>
                        <polygon id="Fill-4" fill="#2D73BA" points="43.8749743 0 38 0.0215362527 55.1127754 30 61 29.9976071 61 29.9973895"></polygon>
                    </g>
                    <path d="M81.4206314,7.60249 L81.4206314,6.3699422 L86.5749222,6.3699422 L86.5749222,7.60249 L90.608715,7.60249 L90.608715,6.3699422 L96.9955536,6.3699422 L96.9955536,3.5686972 L90.608715,3.5686972 L90.608715,2.1120498 L86.5749222,2.1120498 L86.5749222,3.5686972 L81.4206314,3.5686972 L81.4206314,2.1120498 L77.3868386,2.1120498 L77.3868386,3.5686972 L71,3.5686972 L71,6.3699422 L77.3868386,6.3699422 L77.3868386,7.60249 L81.4206314,7.60249 Z M83.2134282,17.0146732 C85.9773233,15.8194753 87.7701201,14.325478 88.5918186,12.5326812 L88.5918186,12.5326812 L89.3761672,12.5326812 C90.048466,14.0266785 90.4966652,15.4833259 90.7207648,16.9026234 L90.7207648,16.9026234 L94.530458,16.9026234 C93.932859,14.9604269 93.37261,13.5037795 92.849711,12.5326812 L92.849711,12.5326812 L96.6594042,12.5326812 L96.6594042,9.95553579 L89.6002668,9.95553579 C89.7496665,9.43263673 89.8617163,8.83503779 89.9364162,8.162739 L89.9364162,8.162739 L85.7905736,8.162739 C85.7158737,10.8519342 84.8568253,12.9808804 83.2134282,14.5495776 L83.2134282,14.5495776 L83.2134282,17.0146732 Z M82.0929302,17.126723 L82.0929302,8.2747888 L78.3952868,8.2747888 L78.3952868,17.126723 L82.0929302,17.126723 Z M76.1542908,16.9026234 L76.1542908,8.61093819 L72.680747,8.61093819 L72.680747,16.9026234 L76.1542908,16.9026234 Z M96.9955536,27.211205 L96.9955536,24.6340596 L94.6425078,24.6340596 L94.6425078,17.9110716 L73.3530458,17.9110716 L73.3530458,24.6340596 L71,24.6340596 L71,27.211205 L96.9955536,27.211205 Z M79.403735,24.6340596 L77.162739,24.6340596 L77.162739,20.3761672 L79.403735,20.3761672 L79.403735,24.6340596 Z M85.1182748,24.6340596 L82.8772788,24.6340596 L82.8772788,20.3761672 L85.1182748,20.3761672 L85.1182748,24.6340596 Z M90.8328146,24.6340596 L88.5918186,24.6340596 L88.5918186,20.3761672 L90.8328146,20.3761672 L90.8328146,24.6340596 Z M112.49044,28.331703 L112.49044,24.40996 C112.042241,24.0364606 111.369942,23.5509115 110.473544,22.9533126 C110.324144,22.8786127 110.212094,22.8039129 110.137394,22.729213 C111.407292,21.1605158 112.56514,19.1062695 113.610938,16.566474 L113.610938,16.566474 L113.610938,13.8772788 L109.801245,13.8772788 C109.651845,12.5326812 109.278346,11.1507337 108.680747,9.73143619 L108.680747,9.73143619 L105.991552,9.73143619 C106.663851,8.90973766 107.298799,8.01333926 107.896398,7.042241 C109.240996,9.50733659 111.369942,11.4495331 114.283237,12.8688306 L114.283237,12.8688306 L114.283237,10.2916852 C112.191641,8.2747888 110.660293,5.66029346 109.689195,2.4481992 L109.689195,2.4481992 L106.215651,2.4481992 C105.319253,5.66029346 103.750556,8.2747888 101.50956,10.2916852 L101.50956,10.2916852 L101.50956,12.9808804 C103.451756,11.9350823 104.908404,10.8892841 105.879502,9.84348599 C105.954202,10.1422855 106.028902,10.5157848 106.103602,10.963984 C106.402401,12.3085816 106.589151,13.2796799 106.663851,13.8772788 L106.663851,13.8772788 L102.293908,13.8772788 L102.293908,16.4544242 L109.577145,16.4544242 C109.128946,17.9484215 108.381948,19.5544687 107.336149,21.2725656 C105.991552,20.6749667 104.609604,20.1894175 103.190307,19.8159182 L103.190307,19.8159182 L103.190307,22.729213 C106.7759,24.37261 109.875945,26.2401067 112.49044,28.331703 L112.49044,28.331703 Z M114.731436,27.8835038 C116.972432,26.9871054 118.914629,26.090707 120.558026,25.1943086 L120.558026,25.1943086 L120.558026,22.5051134 C119.661627,22.9533126 118.839929,23.289462 118.09293,23.5135616 L118.09293,23.5135616 L118.09293,11.4121832 L121.790574,11.4121832 L121.790574,24.6340596 C121.790574,26.650956 122.724322,27.6220542 124.591819,27.5473544 L124.591819,27.5473544 L125.600267,27.5473544 C127.393064,27.6220542 128.252112,26.7256558 128.177412,24.8581592 L128.177412,24.8581592 L128.177412,22.9533126 L126.272566,22.9533126 L126.272566,24.1858604 C126.347265,24.7087594 126.160516,24.970209 125.712317,24.970209 C125.338817,24.970209 125.152068,24.7087594 125.152068,24.1858604 L125.152068,24.1858604 L125.152068,8.61093819 L118.09293,8.61093819 L118.09293,6.1458426 L127.056914,6.1458426 L127.056914,3.3445976 L113.274789,3.3445976 L113.274789,6.1458426 L114.731436,6.1458426 L114.731436,27.8835038 Z M121.454424,19.367719 C121.379724,17.9484215 121.043575,15.9315251 120.445976,13.3170298 L120.445976,13.3170298 L118.31703,13.3170298 C118.839929,15.4833259 119.138728,17.5002223 119.213428,19.367719 L119.213428,19.367719 L121.454424,19.367719 Z M158.238773,28.1076034 L158.238773,25.3063584 C156.595376,24.0364606 155.250778,22.729213 154.20498,21.3846154 C156.072477,18.4713206 157.043575,14.1013784 157.118275,8.2747888 L157.118275,8.2747888 L158.574922,8.2747888 L158.574922,5.4735438 L152.188084,5.4735438 C152.412183,4.5771454 152.636283,3.53134727 152.860382,2.3361494 L152.860382,2.3361494 L149.162739,2.3361494 C148.78924,5.54824366 147.892841,7.90128946 146.473544,9.39528679 L146.473544,9.39528679 L146.473544,7.60249 L141.543353,7.60249 L141.543353,2.3361494 L138.069809,2.3361494 L138.069809,7.60249 L132.915518,7.60249 L132.915518,10.2916852 L135.156514,10.2916852 C134.783015,11.4121832 133.998666,12.4206314 132.803468,13.3170298 L132.803468,13.3170298 L132.803468,15.445976 C135.567363,14.325478 137.28546,12.6073811 137.957759,10.2916852 L137.957759,10.2916852 L138.069809,10.2916852 L138.069809,14.885727 L141.543353,14.885727 L141.543353,10.2916852 C142.215651,12.6820809 143.971098,14.4001779 146.809693,15.445976 L146.809693,15.445976 L146.809693,13.3170298 C145.689195,12.4206314 144.904847,11.4121832 144.456647,10.2916852 L144.456647,10.2916852 L146.361494,10.2916852 L146.361494,12.084482 L147.257892,11.6362828 C147.780791,15.6700756 148.78924,18.8821699 150.283237,21.2725656 C149.312139,22.6171632 148.004891,23.9617608 146.361494,25.3063584 L146.361494,25.3063584 L146.361494,28.1076034 C149.125389,26.3895064 151.067586,24.932859 152.188084,23.7376612 C153.756781,25.2316585 155.773677,26.6883059 158.238773,28.1076034 L158.238773,28.1076034 Z M145.465096,6.8181414 C145.913295,5.84704313 146.249444,4.53979546 146.473544,2.8963984 L146.473544,2.8963984 L143.448199,2.8963984 C143.373499,4.31569586 143.0747,5.62294353 142.551801,6.8181414 L142.551801,6.8181414 L145.465096,6.8181414 Z M137.061361,6.9301912 C137.061361,6.78079146 137.024011,6.63139173 136.949311,6.481992 C136.501112,5.06269453 136.239662,3.86749667 136.164962,2.8963984 L136.164962,2.8963984 L133.139618,2.8963984 C133.289017,4.240996 133.662517,5.5855936 134.260116,6.9301912 L134.260116,6.9301912 L137.061361,6.9301912 Z M152.188084,17.7990218 C151.441085,15.7821254 150.918186,13.2423299 150.619386,10.1796354 L150.619386,10.1796354 L149.498888,10.1796354 C150.171187,9.58203646 150.694086,8.94708759 151.067586,8.2747888 L151.067586,8.2747888 L153.756781,8.2747888 C153.532681,12.6820809 153.009782,15.8568253 152.188084,17.7990218 Z M145.913295,27.9955536 L145.913295,25.530458 C145.539795,25.4557581 145.054246,25.3810582 144.456647,25.3063584 C143.709649,25.1569586 143.1494,25.0075589 142.7759,24.8581592 C144.269898,23.6629613 145.128946,21.9075145 145.353046,19.5918186 L145.353046,19.5918186 L146.921743,19.5918186 L146.921743,16.7905736 L145.577145,16.7905736 L145.577145,15.2218764 L142.103602,15.2218764 L142.103602,16.7905736 L137.50956,16.7905736 L137.50956,15.2218764 L134.148066,15.2218764 L134.148066,16.7905736 L132.579369,16.7905736 L132.579369,19.5918186 L134.260116,19.5918186 C134.484215,21.8328146 135.268564,23.5509115 136.613161,24.7461094 C135.492663,25.0449088 134.633615,25.2316585 134.036016,25.3063584 C133.363717,25.3810582 132.840818,25.4557581 132.467319,25.530458 L132.467319,25.530458 L132.467319,27.9955536 C135.455313,27.5473544 137.883059,26.9871054 139.750556,26.3148066 C141.319253,26.9871054 143.373499,27.5473544 145.913295,27.9955536 L145.913295,27.9955536 Z M139.638506,23.289462 C138.518008,22.4677635 137.845709,21.2352157 137.62161,19.5918186 L137.62161,19.5918186 L141.991552,19.5918186 C141.767452,21.2352157 140.983104,22.4677635 139.638506,23.289462 Z M168.243219,9.39528679 L168.243219,7.1542908 L184.266341,7.1542908 L184.266341,9.28323699 L188.300133,9.28323699 L188.300133,4.3530458 L178.663851,4.3530458 L178.663851,2.3361494 L173.733659,2.3361494 L173.733659,4.3530458 L164.097377,4.3530458 L164.097377,9.39528679 L168.243219,9.39528679 Z M175.078257,27.8835038 C177.916852,28.0329035 179.26145,26.6883059 179.11205,23.849711 L179.11205,23.849711 L179.11205,20.0400178 L189.196532,20.0400178 L189.196532,17.2387728 L179.11205,17.2387728 L179.11205,16.566474 C181.278346,15.7447755 183.295242,14.5122277 185.162739,12.8688306 L185.162739,12.8688306 L185.162739,10.0675856 L167.57092,10.0675856 L167.57092,12.7567808 L179.2241,12.7567808 C177.730102,13.9519787 176.161405,14.885727 174.518008,15.5580258 L174.518008,15.5580258 L174.518008,17.2387728 L163.200978,17.2387728 L163.200978,20.0400178 L174.518008,20.0400178 L174.518008,23.7376612 C174.592708,24.7834593 174.144509,25.3063584 173.17341,25.3063584 L173.17341,25.3063584 L170.932414,25.3063584 L170.932414,27.8835038 L175.078257,27.8835038 Z M211.974655,24.0738106 L211.974655,21.8328146 L219.145843,21.8328146 L219.145843,19.4797688 L211.974655,19.4797688 L211.974655,17.686972 L218.361494,17.686972 L218.361494,15.3339262 L211.974655,15.3339262 L211.974655,13.5411294 L214.327701,13.5411294 C216.942197,13.6158293 218.212094,12.3459315 218.137394,9.73143619 L218.137394,9.73143619 L218.137394,9.61938639 L220.154291,9.61938639 L220.154291,7.3783904 L218.137394,7.3783904 L218.137394,3.4566474 L211.974655,3.4566474 L211.974655,2 L208.052912,2 L208.052912,3.4566474 L203.458871,3.4566474 L203.458871,5.8096932 L208.052912,5.8096932 L208.052912,7.3783904 L202.338373,7.3783904 L202.338373,9.61938639 L208.052912,9.61938639 L208.052912,11.3001334 L203.346821,11.3001334 L203.346821,13.5411294 L208.052912,13.5411294 L208.052912,15.3339262 L203.122721,15.3339262 L203.122721,17.686972 L208.052912,17.686972 L208.052912,19.4797688 L202.450422,19.4797688 L202.450422,21.8328146 L208.052912,21.8328146 L208.052912,24.0738106 L211.974655,24.0738106 Z M194.046687,27.9955536 C195.839484,27.2485549 197.296132,26.4268564 198.41663,25.530458 C200.134727,26.650956 202.263673,27.211205 204.803468,27.211205 L204.803468,27.211205 L219.706092,27.211205 L219.706092,24.7461094 L205.027568,24.7461094 C203.234771,24.7461094 201.740774,24.37261 200.545576,23.6256114 C201.666074,22.0569142 202.226323,20.0773677 202.226323,17.686972 L202.226323,17.686972 L202.226323,11.6362828 L198.19253,11.6362828 C199.910627,10.2916852 201.255225,8.42418853 202.226323,6.0337928 L202.226323,6.0337928 L202.226323,3.4566474 L194.270787,3.4566474 L194.270787,6.0337928 L198.19253,6.0337928 C197.370831,8.12538906 196.100934,9.99288573 194.382837,11.6362828 L194.382837,11.6362828 L194.382837,14.1013784 L198.640729,14.1013784 L198.640729,18.4713206 C198.640729,19.367719 198.528679,20.1894175 198.30458,20.9364162 C197.706981,19.6665185 197.296132,18.0231214 197.072032,16.006225 L197.072032,16.006225 L193.710538,16.006225 C194.158737,19.4424189 195.055136,22.0569142 196.399733,23.849711 C195.727434,24.4473099 194.943086,24.932859 194.046687,25.3063584 L194.046687,25.3063584 L194.046687,27.9955536 Z M214.439751,7.3783904 L211.974655,7.3783904 L211.974655,5.8096932 L214.439751,5.8096932 L214.439751,7.3783904 Z M213.252161,11.3077417 L213.095153,11.3001334 L211.974655,11.3001334 L211.974655,9.61938639 L214.439751,9.61938639 L214.439751,9.95553579 C214.514451,10.9266341 214.066252,11.3748333 213.095153,11.3001334 L213.252161,11.3077417 Z M236.881725,9.84348599 C239.64562,9.09648733 241.550467,7.90128946 242.596265,6.2578924 L242.596265,6.2578924 L243.492663,6.2578924 C243.940863,7.3783904 244.202312,8.53623833 244.277012,9.73143619 L244.277012,9.73143619 L247.750556,9.73143619 C247.526456,8.46153846 247.227657,7.30369053 246.854157,6.2578924 L246.854157,6.2578924 L250.439751,6.2578924 L250.439751,3.9048466 L243.828813,3.9048466 C243.828813,3.75544687 243.903513,3.5686972 244.052912,3.3445976 C244.127612,2.8963984 244.202312,2.560249 244.277012,2.3361494 L244.277012,2.3361494 L240.355269,2.3361494 C239.83237,4.801245 238.674522,6.5940418 236.881725,7.7145398 L236.881725,7.7145398 L236.881725,9.84348599 Z M235.088928,9.84348599 C235.014229,8.57358826 234.752779,7.3783904 234.30458,6.2578924 L234.30458,6.2578924 L237.666074,6.2578924 L237.666074,3.9048466 L231.839484,3.9048466 C232.063584,3.4566474 232.212984,2.97109827 232.287683,2.4481992 L232.287683,2.4481992 L228.36594,2.4481992 C227.843041,4.76389506 226.647843,6.51934193 224.780347,7.7145398 L224.780347,7.7145398 L224.780347,9.84348599 C227.469542,9.24588706 229.411739,8.0506892 230.606936,6.2578924 L230.606936,6.2578924 L230.831036,6.2578924 C231.129835,7.45309026 231.391285,8.64828813 231.615385,9.84348599 L231.615385,9.84348599 L235.088928,9.84348599 Z M239.010671,15.6700756 L239.182204,16.2745912 C239.632248,17.9050772 240.02327,19.6831184 240.355269,21.608715 L240.355269,21.608715 L243.156514,21.608715 C242.783015,19.2183193 242.260116,17.2387728 241.587817,15.6700756 L241.587817,15.6700756 L239.010671,15.6700756 Z M239.010671,15.6700756 L239.010671,13.3170298 L243.380614,13.3170298 L243.380614,24.1858604 C243.305914,26.4268564 244.314362,27.5100044 246.405958,27.4353046 L246.405958,27.4353046 L248.198755,27.4353046 C250.066252,27.4353046 251,26.4642063 251,24.5220098 L251,24.5220098 L251,23.1774122 L248.534904,23.1774122 L248.534904,23.9617608 C248.534904,24.5593597 248.310805,24.8581592 247.862606,24.8581592 C247.339707,24.8581592 247.078257,24.5593597 247.078257,23.9617608 L247.078257,23.9617608 L247.078257,10.6278346 L235.200978,10.6278346 L235.200978,15.5580258 C235.275678,19.5171187 234.902179,22.2063139 234.08048,23.6256114 L234.08048,23.6256114 L234.08048,21.2725656 C233.184082,21.4966652 232.362383,21.6460649 231.615385,21.7207648 L231.615385,21.7207648 L231.615385,13.765229 L233.96843,13.765229 L233.96843,11.0760338 L225.452646,11.0760338 L225.452646,13.765229 L227.805691,13.765229 L227.805691,22.168964 L227.805691,22.168964 L226.573144,22.168964 C225.900845,22.2436639 225.377946,22.2810138 225.004446,22.2810138 L225.004446,22.2810138 L225.004446,25.3063584 C228.44064,25.3063584 231.428635,24.8208092 233.96843,23.849711 C233.744331,24.2979102 233.520231,24.7087594 233.296132,25.0822588 L233.296132,25.0822588 L233.296132,27.9955536 C237.255225,25.7545576 239.160071,21.6460649 239.010671,15.6700756 L239.010671,15.6700756 Z" id="蓝瓴数字建筑" fill="#888889" fill-rule="nonzero"></path>
                </g>
            </g>
        </g>
    </g>
</svg>