<?xml version="1.0" standalone="no"?><!DOCTYPE svg PUBLIC "-//W3C//DTD SVG 1.1//EN" "http://www.w3.org/Graphics/SVG/1.1/DTD/svg11.dtd"><svg t="1601202173731" class="icon" viewBox="0 0 1024 1024" version="1.1" xmlns="http://www.w3.org/2000/svg" p-id="1660" xmlns:xlink="http://www.w3.org/1999/xlink" width="200" height="200"><defs><style type="text/css"></style></defs><path d="M800 512c-17.92 0-32 14.08-32 32v320c0 17.92-14.08 32-32 32H640v-224c0-17.92-14.08-32-32-32h-256c-17.92 0-32 14.08-32 32V896H224c-17.92 0-32-14.08-32-32v-320c0-17.92-14.08-32-32-32s-32 14.08-32 32v320c0 53.12 42.88 96 96 96h512c53.12 0 96-42.88 96-96v-320c0-17.92-14.08-32-32-32zM576 896H384v-192h192v192z m317.44-588.16l-64-160A31.296 31.296 0 0 0 800 128h-640c-12.8 0-24.96 7.68-29.44 19.84l-64 160C64.64 311.68 64 316.16 64 320c0 70.4 57.6 128 128 128 38.4 0 72.32-16.64 96-43.52 23.68 26.88 57.6 43.52 96 43.52s72.32-16.64 96-43.52c23.68 26.88 57.6 43.52 96 43.52s72.32-16.64 96-43.52c23.68 26.88 57.6 43.52 96 43.52 70.4 0 128-57.6 128-128 0-3.84-0.64-8.32-2.56-12.16zM768 384c-35.2 0-64-28.8-64-64 0-17.92-14.08-32-32-32s-32 14.08-32 32c0 35.2-28.8 64-64 64s-64-28.8-64-64c0-17.92-14.08-32-32-32S448 302.08 448 320c0 35.2-28.8 64-64 64s-64-28.8-64-64c0-17.92-14.08-32-32-32S256 302.08 256 320c0 35.2-28.8 64-64 64-33.28 0-60.8-25.6-64-58.24L181.76 192h596.48L832 325.76c-3.2 32.64-30.72 58.24-64 58.24z" p-id="1661"></path></svg>