<?xml version="1.0" standalone="no"?><!DOCTYPE svg PUBLIC "-//W3C//DTD SVG 1.1//EN" "http://www.w3.org/Graphics/SVG/1.1/DTD/svg11.dtd"><svg t="1601201821042" class="icon" viewBox="0 0 1024 1024" version="1.1" xmlns="http://www.w3.org/2000/svg" p-id="1204" xmlns:xlink="http://www.w3.org/1999/xlink" width="200" height="200"><defs><style type="text/css"></style></defs><path d="M858.496 763.584a374.016 374.016 0 0 0-80.64-119.488 375.68 375.68 0 0 0-119.488-80.64l-1.152-0.448a247.936 247.936 0 1 0-290.432 0.128l-1.152 0.448c-44.8 18.944-85.056 46.016-119.552 80.64a375.68 375.68 0 0 0-110.08 257.6 8 8 0 0 0 8 8.192h60.032a8 8 0 0 0 7.936-7.808 298.112 298.112 0 0 1 87.808-204.288A298.048 298.048 0 0 1 512 609.92c80.192 0 155.52 31.232 212.224 87.936a298.112 298.112 0 0 1 87.744 204.288 7.936 7.936 0 0 0 8.064 7.808h59.968c4.48 0 8.128-3.712 8-8.192a372.672 372.672 0 0 0-29.44-138.24zM512 534.016a170.88 170.88 0 0 1-121.6-50.432 170.88 170.88 0 0 1-50.368-121.6c0-45.888 17.92-89.088 50.368-121.6A170.88 170.88 0 0 1 512 190.08c45.888 0 89.088 17.92 121.6 50.368a170.88 170.88 0 0 1 50.368 121.6 170.88 170.88 0 0 1-50.368 121.6 170.88 170.88 0 0 1-121.6 50.432z" p-id="1205"></path></svg>